<svg xmlns="http://www.w3.org/2000/svg" viewBox="166 0 96 96">
  <defs>
    <style>
      .cls-1 {
        fill: #ff0;
      }
    </style>
  </defs>
  <path id="arrow-circle-right" class="cls-1" d="M56,8A48,48,0,1,1,8,56,47.992,47.992,0,0,1,56,8ZM50.406,35.794,65.019,49.806H29.677a4.634,4.634,0,0,0-4.645,4.645v3.1a4.634,4.634,0,0,0,4.645,4.645H65.019L50.406,76.206a4.65,4.65,0,0,0-.077,6.639l2.129,2.11a4.626,4.626,0,0,0,6.561,0L84.7,59.29a4.626,4.626,0,0,0,0-6.561l-25.684-25.7a4.626,4.626,0,0,0-6.561,0l-2.129,2.11A4.673,4.673,0,0,0,50.406,35.794Z" transform="translate(158 -8)"/>
</svg>
