<svg xmlns="http://www.w3.org/2000/svg" viewBox="0 0 96 96">
  <defs>
    <style>
      .cls-1 {
        fill: #ff0;
      }
    </style>
  </defs>
  <path id="arrow-circle-left" class="cls-1" d="M56,104a48,48,0,1,1,48-48A47.992,47.992,0,0,1,56,104Zm5.594-27.794L46.981,62.194H82.323a4.634,4.634,0,0,0,4.645-4.645v-3.1a4.634,4.634,0,0,0-4.645-4.645H46.981L61.594,35.794a4.65,4.65,0,0,0,.077-6.639l-2.129-2.11a4.626,4.626,0,0,0-6.561,0L27.3,52.71a4.626,4.626,0,0,0,0,6.561L52.981,84.955a4.626,4.626,0,0,0,6.561,0l2.129-2.11A4.65,4.65,0,0,0,61.594,76.206Z" transform="translate(-8 -8)"/>
</svg>
