<svg xmlns="http://www.w3.org/2000/svg" viewBox="0 0 775.71 456.93"><defs><style>.cls-1,.cls-3{fill:none;}.cls-1,.cls-2,.cls-3,.cls-4{stroke:#000;stroke-miterlimit:10;}.cls-1,.cls-2,.cls-4{stroke-width:6px;}.cls-3{stroke-width:9px;}.cls-4{fill:#ff0;}</style></defs><title>Miki-Bin-logo-03</title><g id="Layer_4" data-name="Layer 4"><path d="M222.65,233.49H234.9L258,295.32l8.15,22.94h.79l7.81-22.94,23.4-61.83h12.25V365.27h-9V275.35c0-9.45.83-22.24,1.2-31.25H302l-7.26,22.54-24.77,63.54h-7.19l-24.52-63.54-7.75-22.54h-.4c.48,9,1.35,21.8,1.35,31.25v89.92h-8.76Z" transform="translate(-178.5 -86.88)"/><path d="M388,357.33h33.91V241.43H388v-7.94h77v7.94H431.12v115.9H465v7.94H388Z" transform="translate(-178.5 -86.88)"/><path d="M551.14,221.42H560V327.08h.8l61.67-57.84h11L560,338v27.27h-8.88Zm34.93,88.17,5.92-6.13,47.85,61.81H629.6Z" transform="translate(-178.5 -86.88)"/><path d="M554.36,407.49h33.42c27.09,0,43.1,10,43.1,32,0,13.73-7.69,24.75-23.29,28.75v.8c19.49,2.85,31.42,13.54,31.42,31.83,0,25.36-18.25,38.4-48.67,38.4h-36Zm29.74,57.82c27.06,0,37.67-8.66,37.67-25.44,0-17.55-11.86-24.5-36.58-24.5H563.54v49.94Zm3.84,66.08c26.77,0,41.95-9.29,41.95-30.44,0-19-15-27.76-41.95-27.76h-24.4v58.2Z" transform="translate(-178.5 -86.88)"/><path d="M872.58,443.24h7.48l1,18.44h.8c11.08-11.91,22.42-20.84,37.91-20.84,23.29,0,34.48,12.58,34.48,38.62v59.81h-8.88V480.63c0-21.45-8-31.8-27-31.8-13.64,0-23,7.11-36.86,21.62v68.82h-8.88Z" transform="translate(-178.5 -86.88)"/><line class="cls-1" x1="47.2" y1="77.19" x2="47.2" y2="156.74"/><line class="cls-1" x1="128.7" y1="77.19" x2="128.7" y2="156.74"/><circle class="cls-1" cx="41.3" cy="41.3" r="38.3"/><circle class="cls-1" cx="128.7" cy="41.3" r="38.3"/><circle class="cls-2" cx="39.83" cy="39.83" r="4.42"/><circle class="cls-2" cx="130.17" cy="39.83" r="4.42"/><line class="cls-3" x1="583.13" y1="127.56" x2="583.5" y2="452.12"/><line class="cls-3" x1="545.46" y1="452.43" x2="622.5" y2="452.12"/><ellipse class="cls-4" cx="584.31" cy="111.62" rx="28.48" ry="11.87"/><ellipse class="cls-4" cx="584.31" cy="87.21" rx="53.4" ry="22.25"/><ellipse class="cls-4" cx="583.84" cy="57.3" rx="79.16" ry="28.68"/><path class="cls-1" d="M709.42,173.09c0-12.28,23.9-22.24,53.39-22.24s53.4,10,53.4,22.24" transform="translate(-178.5 -86.88)"/><path class="cls-1" d="M734.33,198.5c0-6.56,12.75-11.87,28.48-11.87s28.48,5.31,28.48,11.87" transform="translate(-178.5 -86.88)"/></g></svg>